<?xml version="1.0" encoding="utf-8"?>
<!-- Generator: Adobe Illustrator 17.0.0, SVG Export Plug-In . SVG Version: 6.00 Build 0)  -->
<!DOCTYPE svg PUBLIC "-//W3C//DTD SVG 1.1//EN" "http://www.w3.org/Graphics/SVG/1.1/DTD/svg11.dtd">
<svg version="1.1" id="Слой_1" xmlns="http://www.w3.org/2000/svg" xmlns:xlink="http://www.w3.org/1999/xlink" x="0px" y="0px"
	 width="512px" height="512px" viewBox="0 0 512 512" enable-background="new 0 0 512 512" xml:space="preserve">
<g id="Layer" display="none">
	<g display="inline">
		
			<polyline fill="none" stroke="#000000" stroke-width="16" stroke-linecap="round" stroke-linejoin="round" stroke-miterlimit="10" points="
			89,386 424,386 424,385.999 		"/>
		
			<polyline fill="none" stroke="#000000" stroke-width="16" stroke-linecap="round" stroke-linejoin="round" stroke-miterlimit="10" points="
			89,257 424,257 424,256.999 		"/>
		
			<polyline fill="none" stroke="#000000" stroke-width="16" stroke-linecap="round" stroke-linejoin="round" stroke-miterlimit="10" points="
			89,127 424,127 424,126.999 		"/>
	</g>
</g>
<g id="Layer_copy">
	<g>
		<path fill="#BEA67C" d="M424,394H89c-4.418,0-8-3.582-8-8s3.582-8,8-8h335c4.418,0,8,3.582,8,8S428.418,394,424,394z"/>
	</g>
	<g>
		<path fill="#BEA67C" d="M424,265H89c-4.418,0-8-3.582-8-8s3.582-8,8-8h335c4.418,0,8,3.582,8,8S428.418,265,424,265z"/>
	</g>
	<g>
		<path fill="#BEA67C" d="M424,135H89c-4.418,0-8-3.582-8-8s3.582-8,8-8h335c4.418,0,8,3.582,8,8S428.418,135,424,135z"/>
	</g>
</g>
</svg>
