<?xml version="1.0" encoding="utf-8"?>
<!-- Generator: Adobe Illustrator 17.0.0, SVG Export Plug-In . SVG Version: 6.00 Build 0)  -->
<!DOCTYPE svg PUBLIC "-//W3C//DTD SVG 1.1//EN" "http://www.w3.org/Graphics/SVG/1.1/DTD/svg11.dtd">
<svg version="1.1" id="Capa_1" xmlns="http://www.w3.org/2000/svg" xmlns:xlink="http://www.w3.org/1999/xlink" x="0px" y="0px"
	 width="1000px" height="1000px" viewBox="0 0 1000 1000" enable-background="new 0 0 1000 1000" xml:space="preserve">
<path fill="#FFFFFF" d="M532.665,0h-76.708C297.437,0,173.264,129.185,173.264,294.103v411.763
	C173.264,870.8,297.437,1000,455.956,1000h76.708c162.151,0,294.072-131.947,294.072-294.134V294.103
	C826.736,131.935,694.816,0,532.665,0z M497.033,154.123h5.935c9.276,0,16.826,7.548,16.826,16.826v119.782
	c0,9.278-7.55,16.826-16.826,16.826h-5.935c-9.276,0-16.826-7.548-16.826-16.826V170.949
	C480.207,161.671,487.757,154.123,497.033,154.123z M788.278,705.866c0,140.98-114.667,255.676-255.613,255.676h-76.708
	c-136.956,0-244.234-112.307-244.234-255.676V294.103c0-143.35,107.28-255.644,244.234-255.644h24.578v79.722
	c-22.45,7.036-38.786,28.029-38.786,52.77v119.782c0,24.739,16.335,45.735,38.786,52.768v98.949c0,10.619,8.61,19.229,19.229,19.229
	s19.229-8.61,19.229-19.229v-98.81c22.693-6.887,39.259-27.996,39.259-52.907V170.949c0-24.912-16.566-46.021-39.259-52.91V38.459
	h13.672c140.946,0,255.613,114.681,255.613,255.644V705.866z"/>
</svg>
